<svg xmlns="http://www.w3.org/2000/svg" width="158.99" height="24.04" viewBox="0 0 158.99 24.04">
  <defs>
    <style>
      .a {
        fill: #fff;
      }

      .b {
        fill: none;
        stroke: #fff;
        stroke-miterlimit: 10;
        stroke-width: 2px;
      }
    </style>
  </defs>
  <g>
    <g>
      <path class="a" d="M32.22,7.14h3.1v12h-3.1Z"/>
      <path class="a" d="M41,11.89v7.26H37.93v-12h3.18L46,14.05V7.14h3.11v12h-3Z"/>
      <path class="a" d="M54.38,9.84H51V7.14h9.82v2.7H57.48v9.31h-3.1Z"/>
      <path class="a" d="M62.75,7.14h8.8V9.75h-5.7v2h5.58v2.63H65.85v2.16h5.7v2.61h-8.8Z"/>
      <path class="a" d="M78.48,15.08H76.9v4.07H73.8v-12h6a3.87,3.87,0,0,1,4.18,4,3.64,3.64,0,0,1-2.39,3.6l2.45,4.41H80.5Zm.87-5.33H76.9v2.7h2.45a1.36,1.36,0,1,0,0-2.7Z"/>
      <path class="a" d="M93.84,17.33h-5l-.61,1.82H84.87l4.52-12h3.89l4.54,12H94.45Zm-4.18-2.61H93l-1.7-4.88Z"/>
      <path class="a" d="M98,13.15a6.1,6.1,0,0,1,6.41-6.21,5.61,5.61,0,0,1,5.33,3.22L107,11.42a2.91,2.91,0,0,0-2.66-1.74,3.29,3.29,0,0,0-3.26,3.47,3.3,3.3,0,0,0,3.26,3.48A2.91,2.91,0,0,0,107,14.88l2.67,1.26a5.63,5.63,0,0,1-5.33,3.22A6.11,6.11,0,0,1,98,13.15Z"/>
      <path class="a" d="M114.16,9.84h-3.37V7.14h9.81v2.7h-3.35v9.31h-3.09Z"/>
      <path class="a" d="M128,6.94a6.1,6.1,0,0,1,6.41,6.21,6.42,6.42,0,0,1-12.84,0A6.11,6.11,0,0,1,128,6.94Zm0,2.74a3.24,3.24,0,0,0-3.28,3.47,3.28,3.28,0,1,0,6.54,0A3.24,3.24,0,0,0,128,9.68Z"/>
      <path class="a" d="M141.05,15.08h-1.58v4.07h-3.1v-12h6a3.87,3.87,0,0,1,4.18,4,3.64,3.64,0,0,1-2.4,3.6l2.45,4.41h-3.54Zm.86-5.33h-2.44v2.7h2.44a1.36,1.36,0,1,0,0-2.7Z"/>
      <path class="a" d="M149.49,15.13a5.4,5.4,0,0,0,3.83,1.59c1.07,0,1.72-.45,1.72-1s-.78-.95-2.06-1.22c-2-.4-4.75-.9-4.75-3.75,0-2,1.71-3.76,4.79-3.76a7.36,7.36,0,0,1,4.88,1.67l-1.69,2.22a5.59,5.59,0,0,0-3.39-1.24c-1,0-1.42.41-1.42.93s.74.85,2.07,1.1c2,.41,4.72,1,4.72,3.71,0,2.41-1.79,4-5,4a7.36,7.36,0,0,1-5.33-1.9Z"/>
    </g>
    <circle class="b" cx="20.54" cy="4.74" r="2.74"/>
    <path class="b" d="M20.54,7.49A2.74,2.74,0,0,1,17.8,4.74,2.9,2.9,0,0,1,18,3.8a4.53,4.53,0,0,0-.91-.1,4.38,4.38,0,1,0,4.37,4.38,4.3,4.3,0,0,0-.07-.73A2.76,2.76,0,0,1,20.54,7.49Z"/>
    <path class="b" d="M12.68,8.08a4.05,4.05,0,0,1,.07-.7,7.53,7.53,0,1,0,4.31,6.8,7.23,7.23,0,0,0-.22-1.75A4.36,4.36,0,0,1,12.68,8.08Z"/>
  </g>
</svg>
