<svg xmlns="http://www.w3.org/2000/svg" width="185.05" height="24.04" viewBox="0 0 185.05 24.04">
  <defs>
    <style>
      .a, .d {
        fill: #fff;
      }

      .a, .b, .c {
        stroke: #14305c;
        stroke-miterlimit: 10;
        stroke-width: 2px;
      }

      .b {
        fill: #26abe8;
      }

      .c {
        fill: #f74d7b;
      }
    </style>
  </defs>
  <g>
    <circle class="a" cx="21.31" cy="4.44" r="2.96"/>
    <path class="b" d="M21.31,7.39a3,3,0,0,1-3-2.95,3.13,3.13,0,0,1,.19-1,4.62,4.62,0,0,0-1-.11A4.72,4.72,0,1,0,22.27,8a4.15,4.15,0,0,0-.08-.79A2.85,2.85,0,0,1,21.31,7.39Z"/>
    <path class="c" d="M12.83,8a4.53,4.53,0,0,1,.08-.74,8.11,8.11,0,1,0,4.64,7.33,7.83,7.83,0,0,0-.23-1.89A4.71,4.71,0,0,1,12.83,8Z"/>
  </g>
  <g>
    <path class="d" d="M29.58,5.27h3.79V20H29.58Z"/>
    <path class="d" d="M40.34,11.08V20H36.56V5.27h3.89l5.94,8.45V5.27H50.2V20H46.55Z"/>
    <path class="d" d="M56.66,8.57H52.55V5.27h12v3.3H60.45V20H56.66Z"/>
    <path class="d" d="M66.89,5.27H77.65V8.46h-7V10.9H77.5v3.21H70.68v2.65h7V20H66.89Z"/>
    <path class="d" d="M86.12,15H84.19v5H80.4V5.27h7.35a4.73,4.73,0,0,1,5.11,4.88,4.47,4.47,0,0,1-2.93,4.41l3,5.39H88.59Zm1.06-6.51h-3v3.3h3a1.66,1.66,0,1,0,0-3.3Z"/>
    <path class="d" d="M104.89,17.72h-6.1L98.05,20H93.93L99.45,5.27h4.76L109.75,20h-4.11Zm-5.11-3.19h4.12l-2.07-6Z"/>
    <path class="d" d="M109.93,12.62A7.46,7.46,0,0,1,117.76,5,6.82,6.82,0,0,1,124.27,9L121,10.51a3.57,3.57,0,0,0-3.26-2.14,4,4,0,0,0-4,4.25,4,4,0,0,0,4,4.25A3.57,3.57,0,0,0,121,14.73l3.25,1.54a6.88,6.88,0,0,1-6.51,3.94A7.47,7.47,0,0,1,109.93,12.62Z"/>
    <path class="d" d="M129.73,8.57h-4.12V5.27h12v3.3h-4.09V20h-3.78Z"/>
    <path class="d" d="M146.58,5c4.49,0,7.83,3.12,7.83,7.59s-3.34,7.59-7.83,7.59-7.86-3.12-7.86-7.59S142.09,5,146.58,5Zm0,3.34a4,4,0,0,0-4,4.25,4,4,0,1,0,8,0A4,4,0,0,0,146.58,8.37Z"/>
    <path class="d" d="M162.59,15h-1.93v5h-3.79V5.27h7.35a4.73,4.73,0,0,1,5.11,4.88,4.47,4.47,0,0,1-2.93,4.41l3,5.39h-4.33Zm1.06-6.51h-3v3.3h3a1.66,1.66,0,1,0,0-3.3Z"/>
    <path class="d" d="M172.91,15A6.64,6.64,0,0,0,177.6,17c1.3,0,2.09-.55,2.09-1.26s-.95-1.16-2.51-1.49c-2.42-.49-5.81-1.1-5.81-4.58,0-2.47,2.09-4.6,5.85-4.6a8.94,8.94,0,0,1,6,2.05l-2.07,2.7A6.84,6.84,0,0,0,177,8.28c-1.25,0-1.74.51-1.74,1.15s.91,1,2.53,1.34c2.43.51,5.77,1.21,5.77,4.53,0,2.95-2.18,4.91-6.12,4.91a9,9,0,0,1-6.51-2.33Z"/>
  </g>
</svg>
