<svg xmlns="http://www.w3.org/2000/svg" width="175.64" height="24.04" viewBox="0 0 175.64 24.04">
  <defs>
    <style>
      .a {
        fill: #fff;
      }

      .b {
        fill: #14315d;
      }

      .c {
        fill: #26abe8;
      }

      .d {
        fill: #f74d7b;
        fill-rule: evenodd;
      }
    </style>
  </defs>
  <g>
    <path class="a" d="M26.48,14.44a6.64,6.64,0,0,0,4.69,1.94c1.3,0,2.09-.55,2.09-1.26s-.95-1.16-2.51-1.49c-2.42-.49-5.81-1.1-5.81-4.58,0-2.46,2.09-4.6,5.86-4.6a9,9,0,0,1,6,2.05L34.69,9.2a6.82,6.82,0,0,0-4.14-1.51c-1.25,0-1.74.5-1.74,1.14s.91,1,2.54,1.34c2.42.51,5.76,1.21,5.76,4.54,0,2.94-2.18,4.9-6.12,4.9a9,9,0,0,1-6.51-2.33Z"/>
    <path class="a" d="M39.51,4.67h3.78V19.35H39.51Z"/>
    <path class="a" d="M59.38,9.45l-3.72,9.9H54L50.3,9.45v9.9H46.51V4.67h5.26L54.83,13l3.08-8.32h5.26V19.35H59.38Z"/>
    <path class="a" d="M66.37,4.67h3.85v8.61a3,3,0,1,0,5.92,0V4.67H80v8.72c0,3.65-2.09,6.22-6.8,6.22s-6.82-2.59-6.82-6.2Z"/>
    <path class="a" d="M83.19,4.67H87V16.05h5.9v3.3H83.19Z"/>
    <path class="a" d="M105.1,17.13H99l-.75,2.22H94.14L99.66,4.67h4.75L110,19.35h-4.12ZM100,13.94h4.12L102,8Z"/>
    <path class="a" d="M110.2,12c0-4.53,3.43-7.59,7.84-7.59a6.82,6.82,0,0,1,6.51,3.94l-3.26,1.54A3.55,3.55,0,0,0,118,7.78a4,4,0,0,0-4,4.24,4,4,0,0,0,4,4.25,3.55,3.55,0,0,0,3.25-2.14l3.26,1.54A6.86,6.86,0,0,1,118,19.61,7.48,7.48,0,0,1,110.2,12Z"/>
    <path class="a" d="M132.43,14.38h-1.94v5h-3.78V4.67h7.35a4.73,4.73,0,0,1,5.1,4.89,4.45,4.45,0,0,1-2.92,4.4l3,5.39h-4.34Zm1.06-6.52h-3v3.3h3a1.66,1.66,0,1,0,0-3.3Z"/>
    <path class="a" d="M141.63,4.67h3.85v8.61a3,3,0,1,0,5.92,0V4.67h3.85v8.72c0,3.65-2.09,6.22-6.8,6.22s-6.82-2.59-6.82-6.2Z"/>
    <path class="a" d="M171.32,9.45l-3.72,9.9h-1.67l-3.7-9.9v9.9h-3.78V4.67h5.25L166.76,13l3.08-8.32h5.26V19.35h-3.78Z"/>
  </g>
  <g>
    <path class="b" d="M10.73,3.61l7.34,4.23v8.37l-7.34,4.22L3.4,16.21V7.84l7.33-4.23m0-3.46L.4,6.1V17.94l10.33,5.95,10.34-5.95V6.1L10.73.15Z"/>
    <path class="c" d="M10.73,5.41,16.5,8.73v6.58l-5.77,3.32L5,15.31V8.73l5.76-3.32m0-2.31L3,7.57v8.9l7.76,4.47,7.77-4.47V7.57L10.73,3.1Z"/>
    <polygon class="d" points="10.73 9.8 8.8 10.92 8.8 13.13 10.73 14.24 12.66 13.13 12.66 10.92 10.73 9.8"/>
  </g>
</svg>
