<?xml version="1.0" encoding="utf-8"?>
<!-- Generator: Adobe Illustrator 25.4.1, SVG Export Plug-In . SVG Version: 6.00 Build 0)  -->
<svg version="1.1" id="Layer_1" xmlns="http://www.w3.org/2000/svg" xmlns:xlink="http://www.w3.org/1999/xlink" x="0px" y="0px"
	 viewBox="0 0 13.5 14.1" style="enable-background:new 0 0 13.5 14.1;" xml:space="preserve">
<style type="text/css">
	.st0{fill:#9BF0E1;}
</style>
<path class="st0" d="M12.8,6.4c-0.6-0.6-1.2-1.2-1.8-1.7S9.7,3.5,9.1,3C7.8,1.9,6.4,0.9,5,0c0.9,1.4,1.9,2.8,3,4.1
	C8.5,4.7,9.1,5.3,9.6,6l0.1,0.1C8.2,6.1,6.4,6.2,5,6.3C3.3,6.4,1.6,6.7,0,7.1c1.6,0.4,3.3,0.7,5,0.8C6.3,8,8.2,8,9.7,8.1L9.6,8.2
	C9.1,8.8,8.5,9.4,8,10.1c-1.1,1.3-2.1,2.7-3,4.1c1.4-0.9,2.8-1.9,4.1-3c0.6-0.5,1.2-1.1,1.9-1.6s1.2-1.1,1.8-1.7l0.7-0.7L12.8,6.4z"
	/>
</svg>
