<svg id="Layer_1" data-name="Layer 1" xmlns="http://www.w3.org/2000/svg" viewBox="0 0 13.49 14.14"><defs><style>.cls-1{fill:#14315d;}</style></defs><path class="cls-1" d="M12.78,6.36C12.19,5.78,11.59,5.2,11,4.64S9.74,3.51,9.09,3A32.54,32.54,0,0,0,5,0,31.48,31.48,0,0,0,8,4.08C8.51,4.74,9.08,5.34,9.64,6l.1.11c-1.54,0-3.39.1-4.74.21A32.5,32.5,0,0,0,0,7.1a32.5,32.5,0,0,0,5,.78C6.34,8,8.19,8,9.74,8.06l-.11.11C9.08,8.8,8.51,9.4,8,10.05a32.54,32.54,0,0,0-3,4.09,31.58,31.58,0,0,0,4.09-3c.65-.53,1.25-1.1,1.88-1.65s1.22-1.15,1.81-1.73l.71-.71Z"/></svg>